<svg viewBox="0 0 2071 400" xmlns="http://www.w3.org/2000/svg"><g><g><g><g><g><line x1="34" y1="378" x2="29" y2="378" style="visibility: inherit;" fill="rgb(0, 0, 0)" stroke="rgb(204, 204, 204)" stroke-width="1px"></line><line x1="34" y1="348.9230769230769" x2="29" y2="348.9230769230769" style="visibility: inherit;" fill="rgb(0, 0, 0)" stroke="rgb(204, 204, 204)" stroke-width="1px"></line><line x1="34" y1="319.8461538461538" x2="29" y2="319.8461538461538" style="visibility: inherit;" fill="rgb(0, 0, 0)" stroke="rgb(204, 204, 204)" stroke-width="1px"></line><line x1="34" y1="290.7692307692308" x2="29" y2="290.7692307692308" style="visibility: inherit;" fill="rgb(0, 0, 0)" stroke="rgb(204, 204, 204)" stroke-width="1px"></line><line x1="34" y1="261.6923076923077" x2="29" y2="261.6923076923077" style="visibility: inherit;" fill="rgb(0, 0, 0)" stroke="rgb(204, 204, 204)" stroke-width="1px"></line><line x1="34" y1="232.6153846153846" x2="29" y2="232.6153846153846" style="visibility: inherit;" fill="rgb(0, 0, 0)" stroke="rgb(204, 204, 204)" stroke-width="1px"></line><line x1="34" y1="203.53846153846152" x2="29" y2="203.53846153846152" style="visibility: inherit;" fill="rgb(0, 0, 0)" stroke="rgb(204, 204, 204)" stroke-width="1px"></line><line x1="34" y1="174.46153846153848" x2="29" y2="174.46153846153848" style="visibility: inherit;" fill="rgb(0, 0, 0)" stroke="rgb(204, 204, 204)" stroke-width="1px"></line><line x1="34" y1="145.38461538461536" x2="29" y2="145.38461538461536" style="visibility: inherit;" fill="rgb(0, 0, 0)" stroke="rgb(204, 204, 204)" stroke-width="1px"></line><line x1="34" y1="116.30769230769232" x2="29" y2="116.30769230769232" style="visibility: inherit;" fill="rgb(0, 0, 0)" stroke="rgb(204, 204, 204)" stroke-width="1px"></line><line x1="34" y1="87.23076923076923" x2="29" y2="87.23076923076923" style="visibility: inherit;" fill="rgb(0, 0, 0)" stroke="rgb(204, 204, 204)" stroke-width="1px"></line><line x1="34" y1="58.15384615384613" x2="29" y2="58.15384615384613" style="visibility: inherit;" fill="rgb(0, 0, 0)" stroke="rgb(204, 204, 204)" stroke-width="1px"></line><line x1="34" y1="29.076923076923038" x2="29" y2="29.076923076923038" style="visibility: inherit;" fill="rgb(0, 0, 0)" stroke="rgb(204, 204, 204)" stroke-width="1px"></line><line x1="34" y1="0" x2="29" y2="0" style="visibility: inherit;" fill="rgb(0, 0, 0)" stroke="rgb(204, 204, 204)" stroke-width="1px"></line></g><g transform="translate(24, 0)"><text x="0" y="378" dx="0em" dy="0.3em" style="text-anchor: end; visibility: hidden; font-family: &quot;Helvetica Neue&quot;, sans-serif; font-size: 12px; font-weight: 200;" fill="rgb(50, 49, 63)" stroke="none" stroke-width="1px">-5</text><text x="0" y="348.9230769230769" dx="0em" dy="0.3em" style="text-anchor: end; visibility: inherit; font-family: &quot;Helvetica Neue&quot;, sans-serif; font-size: 12px; font-weight: 200;" fill="rgb(50, 49, 63)" stroke="none" stroke-width="1px">0</text><text x="0" y="319.8461538461538" dx="0em" dy="0.3em" style="text-anchor: end; visibility: inherit; font-family: &quot;Helvetica Neue&quot;, sans-serif; font-size: 12px; font-weight: 200;" fill="rgb(50, 49, 63)" stroke="none" stroke-width="1px">5</text><text x="0" y="290.7692307692308" dx="0em" dy="0.3em" style="text-anchor: end; visibility: inherit; font-family: &quot;Helvetica Neue&quot;, sans-serif; font-size: 12px; font-weight: 200;" fill="rgb(50, 49, 63)" stroke="none" stroke-width="1px">10</text><text x="0" y="261.6923076923077" dx="0em" dy="0.3em" style="text-anchor: end; visibility: inherit; font-family: &quot;Helvetica Neue&quot;, sans-serif; font-size: 12px; font-weight: 200;" fill="rgb(50, 49, 63)" stroke="none" stroke-width="1px">15</text><text x="0" y="232.6153846153846" dx="0em" dy="0.3em" style="text-anchor: end; visibility: inherit; font-family: &quot;Helvetica Neue&quot;, sans-serif; font-size: 12px; font-weight: 200;" fill="rgb(50, 49, 63)" stroke="none" stroke-width="1px">20</text><text x="0" y="203.53846153846152" dx="0em" dy="0.3em" style="text-anchor: end; visibility: inherit; font-family: &quot;Helvetica Neue&quot;, sans-serif; font-size: 12px; font-weight: 200;" fill="rgb(50, 49, 63)" stroke="none" stroke-width="1px">25</text><text x="0" y="174.46153846153848" dx="0em" dy="0.3em" style="text-anchor: end; visibility: inherit; font-family: &quot;Helvetica Neue&quot;, sans-serif; font-size: 12px; font-weight: 200;" fill="rgb(50, 49, 63)" stroke="none" stroke-width="1px">30</text><text x="0" y="145.38461538461536" dx="0em" dy="0.3em" style="text-anchor: end; visibility: inherit; font-family: &quot;Helvetica Neue&quot;, sans-serif; font-size: 12px; font-weight: 200;" fill="rgb(50, 49, 63)" stroke="none" stroke-width="1px">35</text><text x="0" y="116.30769230769232" dx="0em" dy="0.3em" style="text-anchor: end; visibility: inherit; font-family: &quot;Helvetica Neue&quot;, sans-serif; font-size: 12px; font-weight: 200;" fill="rgb(50, 49, 63)" stroke="none" stroke-width="1px">40</text><text x="0" y="87.23076923076923" dx="0em" dy="0.3em" style="text-anchor: end; visibility: inherit; font-family: &quot;Helvetica Neue&quot;, sans-serif; font-size: 12px; font-weight: 200;" fill="rgb(50, 49, 63)" stroke="none" stroke-width="1px">45</text><text x="0" y="58.15384615384613" dx="0em" dy="0.3em" style="text-anchor: end; visibility: inherit; font-family: &quot;Helvetica Neue&quot;, sans-serif; font-size: 12px; font-weight: 200;" fill="rgb(50, 49, 63)" stroke="none" stroke-width="1px">50</text><text x="0" y="29.076923076923038" dx="0em" dy="0.3em" style="text-anchor: end; visibility: inherit; font-family: &quot;Helvetica Neue&quot;, sans-serif; font-size: 12px; font-weight: 200;" fill="rgb(50, 49, 63)" stroke="none" stroke-width="1px">55</text><text x="0" y="0" dx="0em" dy="0.3em" style="text-anchor: end; visibility: hidden; font-family: &quot;Helvetica Neue&quot;, sans-serif; font-size: 12px; font-weight: 200;" fill="rgb(50, 49, 63)" stroke="none" stroke-width="1px">60</text></g><line x1="34" y1="0" x2="34" y2="378" fill="rgb(0, 0, 0)" stroke="rgb(204, 204, 204)" stroke-width="1px"></line></g></g><g transform="translate(34, 0)" clip-path="url(#clip_0)"><clipPath id="clip_0"><rect width="2037" height="378"></rect></clipPath><g><g><g><line x1="0" y1="0" x2="0" y2="378" fill="rgb(0, 0, 0)" stroke="rgb(60, 60, 60)" stroke-width="1px" opacity="0.25"></line><line x1="169.75" y1="0" x2="169.75" y2="378" fill="rgb(0, 0, 0)" stroke="rgb(60, 60, 60)" stroke-width="1px" opacity="0.25"></line><line x1="339.5" y1="0" x2="339.5" y2="378" fill="rgb(0, 0, 0)" stroke="rgb(60, 60, 60)" stroke-width="1px" opacity="0.25"></line><line x1="509.25" y1="0" x2="509.25" y2="378" fill="rgb(0, 0, 0)" stroke="rgb(60, 60, 60)" stroke-width="1px" opacity="0.25"></line><line x1="679" y1="0" x2="679" y2="378" fill="rgb(0, 0, 0)" stroke="rgb(60, 60, 60)" stroke-width="1px" opacity="0.25"></line><line x1="848.75" y1="0" x2="848.75" y2="378" fill="rgb(0, 0, 0)" stroke="rgb(60, 60, 60)" stroke-width="1px" opacity="0.25"></line><line x1="1018.5" y1="0" x2="1018.5" y2="378" fill="rgb(0, 0, 0)" stroke="rgb(60, 60, 60)" stroke-width="1px" opacity="0.25"></line><line x1="1188.25" y1="0" x2="1188.25" y2="378" fill="rgb(0, 0, 0)" stroke="rgb(60, 60, 60)" stroke-width="1px" opacity="0.25"></line><line x1="1358" y1="0" x2="1358" y2="378" fill="rgb(0, 0, 0)" stroke="rgb(60, 60, 60)" stroke-width="1px" opacity="0.25"></line><line x1="1527.75" y1="0" x2="1527.75" y2="378" fill="rgb(0, 0, 0)" stroke="rgb(60, 60, 60)" stroke-width="1px" opacity="0.25"></line><line x1="1697.5" y1="0" x2="1697.5" y2="378" fill="rgb(0, 0, 0)" stroke="rgb(60, 60, 60)" stroke-width="1px" opacity="0.25"></line><line x1="1867.25" y1="0" x2="1867.25" y2="378" fill="rgb(0, 0, 0)" stroke="rgb(60, 60, 60)" stroke-width="1px" opacity="0.25"></line><line x1="2037" y1="0" x2="2037" y2="378" fill="rgb(0, 0, 0)" stroke="rgb(60, 60, 60)" stroke-width="1px" opacity="0.25"></line></g><g><line x1="0" y1="378" x2="2037" y2="378" fill="rgb(0, 0, 0)" stroke="rgb(60, 60, 60)" stroke-width="1px" opacity="0.25"></line><line x1="0" y1="348.9230769230769" x2="2037" y2="348.9230769230769" fill="rgb(0, 0, 0)" stroke="rgb(60, 60, 60)" stroke-width="1px" opacity="0.25"></line><line x1="0" y1="319.8461538461538" x2="2037" y2="319.8461538461538" fill="rgb(0, 0, 0)" stroke="rgb(60, 60, 60)" stroke-width="1px" opacity="0.25"></line><line x1="0" y1="290.7692307692308" x2="2037" y2="290.7692307692308" fill="rgb(0, 0, 0)" stroke="rgb(60, 60, 60)" stroke-width="1px" opacity="0.25"></line><line x1="0" y1="261.6923076923077" x2="2037" y2="261.6923076923077" fill="rgb(0, 0, 0)" stroke="rgb(60, 60, 60)" stroke-width="1px" opacity="0.25"></line><line x1="0" y1="232.6153846153846" x2="2037" y2="232.6153846153846" fill="rgb(0, 0, 0)" stroke="rgb(60, 60, 60)" stroke-width="1px" opacity="0.25"></line><line x1="0" y1="203.53846153846152" x2="2037" y2="203.53846153846152" fill="rgb(0, 0, 0)" stroke="rgb(60, 60, 60)" stroke-width="1px" opacity="0.25"></line><line x1="0" y1="174.46153846153848" x2="2037" y2="174.46153846153848" fill="rgb(0, 0, 0)" stroke="rgb(60, 60, 60)" stroke-width="1px" opacity="0.25"></line><line x1="0" y1="145.38461538461536" x2="2037" y2="145.38461538461536" fill="rgb(0, 0, 0)" stroke="rgb(60, 60, 60)" stroke-width="1px" opacity="0.25"></line><line x1="0" y1="116.30769230769232" x2="2037" y2="116.30769230769232" fill="rgb(0, 0, 0)" stroke="rgb(60, 60, 60)" stroke-width="1px" opacity="0.25"></line><line x1="0" y1="87.23076923076923" x2="2037" y2="87.23076923076923" fill="rgb(0, 0, 0)" stroke="rgb(60, 60, 60)" stroke-width="1px" opacity="0.25"></line><line x1="0" y1="58.15384615384613" x2="2037" y2="58.15384615384613" fill="rgb(0, 0, 0)" stroke="rgb(60, 60, 60)" stroke-width="1px" opacity="0.25"></line><line x1="0" y1="29.076923076923038" x2="2037" y2="29.076923076923038" fill="rgb(0, 0, 0)" stroke="rgb(60, 60, 60)" stroke-width="1px" opacity="0.25"></line><line x1="0" y1="0" x2="2037" y2="0" fill="rgb(0, 0, 0)" stroke="rgb(60, 60, 60)" stroke-width="1px" opacity="0.25"></line></g></g></g><g><g><line x1="0" y1="348.9230769230769" x2="2037" y2="348.9230769230769" fill="rgb(0, 0, 0)" stroke="rgb(153, 153, 153)" stroke-width="1.5px"></line></g></g><g><g><line x1="169.75" y1="0" x2="169.75" y2="378" fill="rgb(0, 0, 0)" stroke="rgb(153, 153, 153)" stroke-width="1.5px"></line></g></g><g><g><g><g><g><path stroke="rgb(255, 112, 67)" stroke-width="2px" d="M171.20985,66.1208724975586L171.3117,75.10618567833535L172.1944,144.3069865300105L172.97525000000002,186.98272634652946L175.45360000000002,252.1861712529109L177.5585,273.86407646766077L177.72824999999997,275.3108736771804L178.44119999999998,279.94857435960034L179.0523,282.81568671006426L180.24054999999998,287.9781871208778L180.30845,288.4259476001446L180.58005,289.48275683476373L185.87625,302.20544137221117L187.98114999999999,305.59374301616964L189.441,306.7480506310096L189.67865,307.259606552124L191.30825,308.72927539532003L191.7496,309.2059248997615L192.5644,309.71507109128515L194.02425,311.06678242316616L194.29585,311.3039036970872L196.4347,312.531634580172L197.01185,312.8843064088088L197.21554999999998,313.11300333463225L198.16615,313.7521473664504L202.7494,315.6984629410964L204.20925000000003,316.32195898202747L205.97465,317.24035157423754L207.26475,317.70014960949237L209.84495,318.7244649300209L212.5949,319.43582597879265L214.46215,319.7644254684448L214.564,319.7078536693866L215.0393,319.9834917948796L215.1751,320.0882110448984L216.8047,320.34218101501466L217.04235,320.6105982707097L218.53615,321.0162314635057L219.55464999999998,321.00539738581733L221.4898,321.8238874141987L222.47435000000002,321.684261747507L223.01755,321.8094429016113L223.56075,321.8900870396541L227.1934,322.590616783729L228.65325,322.67487412966216L228.7551,322.7061701114361L232.38774999999998,323.3489245781532L233.13465,323.29355625739464L233.5081,323.70039292849026L234.8661,323.93029055962194L235.44325,323.78705445803126L235.8846,323.92306968982405L238.90615,324.044637636038L240.94315,324.38046076847957L244.0326,324.56221094865066L244.44,325.2001515021691L245.52640000000002,324.9919192534227L245.7301,325.19533758897046L246.57885000000002,324.90405147259054L248.10660000000001,325.1255247556246L250.89049999999997,325.41199695880596L252.48615,325.7369832405677L253.0633,325.7381881053631L253.1312,325.8982742896447L253.30095,325.9452168758099L254.1497,325.84651640378513L254.18365,325.78392721322865L254.59105,326.1040995817918L254.7608,325.875404042464L255.74535,326.14502477645874L256.2546,326.38334952867945L260.93969999999996,326.59760055541994L262.80695000000003,326.49890008339514L270.5136,327.354702098553L272.92405,327.58339763788075L273.02590000000004,327.3161852469811L274.995,327.56534269039446L277.0999,327.64839517153223L279.44245,327.7615387696486L279.91775,327.76394711274367L279.98564999999996,328.0480095863342L280.01959999999997,327.6255249243516L281.9887,328.2478174869831L287.92995,328.43799617473894L292.61505,328.7413184606112L292.68295,328.8388140678406L294.38045,328.63298877569343L296.79089999999997,328.8002972162687L298.5563,328.87492396281317L299.26925,328.6763209269597L299.5069,328.7677991426908L303.13955000000004,329.01816006440384L304.09015,329.214356143658L305.04075,329.29500166819645L306.80615,329.3166670505817L308.91105,329.3527769455543L312.23814999999996,329.3840715408325L313.2906,329.5369368553162L313.46035,329.2023199741657L316.3461,329.730725977971L316.414,329.41055222291214L319.16395,329.7644289163443L322.28735,330.012382881458L322.8645,330.1616363745469L323.57745,329.77646508583655L328.12675,329.91368240943325L328.26255,330.08339780660776L328.53415,330.11710074498103L332.33655,330.48542056450475L332.81185,330.14117447046135L334.10195,330.1893205349262L334.50935000000004,330.4047750399663L335.93525,330.33616707141584L338.5494,330.5672695673429L341.23145,330.522733937777L341.29935,330.70448689093956L343.13264999999996,330.67920968715964L344.08324999999996,330.53236315067L347.64799999999997,330.90910870478706L351.2467,330.658747783074L351.722,330.7839275506827L353.79294999999996,330.9572547692519L358.1725,330.9716992818392L362.58599999999996,331.1317854661208L364.0798,331.15104389190674L366.96555,331.17872805228603L367.64455,331.2268755032466L368.86675,331.5217720545255L369.1044,331.18113639538103L370.3266,331.2473374073322L371.03955,331.1715071824881L373.14445,330.8958690569951L373.82345,331.3544622274546L377.5919,331.49890180734485L377.9314,331.5277894460238L380.27395,331.49047607275156L380.7153,331.55547360640304L380.919,331.22928245984593L381.36035,331.34001910136294L383.2955,331.57714037528405L384.07635,331.574732032189L386.24915,331.7191716120793L391.13795,331.8792577963609L392.97125,331.5277894460238L393.95579999999995,331.8575924139756L395.7891,331.66741372621976L397.11315,331.7300043032719L397.21500000000003,331.76370724164525L397.6224,331.8443527661837L398.67485000000005,331.9394414168138L402.47725,331.9141642130338L406.27965,332.02008694135225L407.16235,331.825092953902L411.03265000000005,331.986384002979L411.30424999999997,332.1512854869549L412.69620000000003,331.992402780973L415.8196,332.12600828317494L417.9924,332.22470875519974L419.62199999999996,332.3775726831876L420.40285,332.1488785303556L422.71144999999996,332.1669334778419L423.05095,332.32100088412943L423.15279999999996,332.63997116088865L423.66204999999997,331.9466636731074L424.7824,332.46544046401976L430.9613,332.16452513474684L433.23595,332.3932206740746L434.18655,332.4076651866619L434.52605,332.378777547983L435.71430000000004,332.3619260787964L441.0784,332.68209983385526L443.62465,332.7458925027114L447.49495,332.7013582596412L448.88689999999997,332.8530187093295L452.72325,332.4570147294265L453.7078,332.6688587995676L453.87755,332.73867163291345L454.1831,332.8217241140512L457.2386,332.73144937661976L457.34045000000003,332.57617710553683L458.29105000000004,332.6941360033475L458.63054999999997,332.8313533269442L461.78790000000004,332.86505487882175L462.9422,332.74950432410606L464.9792,332.9192197212806L469.189,332.9577365728525L471.19205,332.83857558323785L472.07475000000005,332.7555231021001L472.1766,333.02995636279763L472.88955,332.8457964530358L473.1272,332.8879251260024L475.0963,332.9842172549321L475.3,333.12023110022915L477.20120000000003,332.97458804203916L484.16095,332.99745828921976L486.06215000000003,333.060048866272L487.14855,333.164766729795L490.10220000000004,333.1479152606084L491.22255,333.3080028313857L493.9046,333.164766729795L494.14225000000005,333.26226372352016L494.5836,333.12865683482244L496.62059999999997,333.3392974266639L497.6391,333.05403008827795L498.41995000000003,333.15273056030276L499.03105,332.9673671722412L503.9538,333.180414720682L506.1266,333.3537405527555L511.25305000000003,333.53910532731277L512.13575,333.3669815870432L518.65415,333.49697665434616L518.8918,333.4993836109455L522.72815,333.5029954323402L522.8299999999999,333.3248529140766L523.54295,333.6089167741629L525.546,333.26346720181976L527.00585,333.53308654931874L529.8916,333.42234990780173L530.94405,333.5234573364258L531.48725,333.44040485528797L532.0644,333.7942801622244L533.4224,333.51503160183245L534.9841,333.57160340089064L535.01805,333.3922587908231L535.76495,333.72807915027323L536.9532,333.65585936032807L537.8359,333.7088207244873L538.14145,333.6053063392639L539.90685,333.6931727336003L540.0087,333.6378044128418L541.163,333.60410286096425L541.2988,333.34411133986254L542.07965,333.8953875908485L542.2833499999999,333.6414162342365L542.3512499999999,333.7750217364385L543.91295,333.7268756719736L546.6968499999999,333.62095294365514L547.3419,333.79909546191874L547.6474499999999,333.70641376788797L549.95605,333.71002420278694L550.02395,333.4596632810739L552.06095,333.73409792826726L557.4590000000001,333.7509493974539L559.2583500000001,333.9122390600351L559.9373499999999,334.02056874495287L560.9898,333.696784554995L561.29535,333.8749256867629L561.8725,333.82677962229803L562.44965,333.8075211965121L565.23355,333.82918657889735L566.0144,333.65465588202846L566.4897000000001,333.9302940075214L569.002,333.8159469311054L572.8723,333.85446378267727L576.1315,334.096398969797L576.30125,333.97001433739297L577.5234499999999,333.77020782323984L578.5759,333.8027058968177L581.86905,333.9688108590933L582.75175,334.12769495157096L582.88755,334.0073277106652L583.43075,334.02417917985184L584.8566500000001,333.9736261587876L587.02945,333.7569667889522L587.1313,334.2468559411856L587.6745,333.9327009641207L590.9337,333.9254800943228L592.7330499999999,333.8568707392766L599.9644,334.1000094046959L600.915,334.3864816078773L604.5137,334.20954256791333L606.9581,334.29259504905116L609.063,334.42018315975486L611.7111,334.2709296666659L612.28825,334.15898954684917L613.2049,334.216764824207L613.91785,334.57906725223245L614.32525,334.0193652666532L614.8345,334.3804628298833L616.7696500000001,334.13130538646993L619.2479999999999,334.1782479726351L622.9825000000001,334.36361136069667L624.7818500000001,334.3756475301889L624.9176500000001,334.2685227100666L628.2447500000001,334.3094465182378L629.67065,334.232412815094L631.4021,334.3768523949843L632.18295,334.3912955210759L634.186,334.36361136069667L634.28785,334.4382381072411L637.47915,334.5718449959388L638.63345,334.4550895764278L639.8217,334.2288009936993L641.1457499999999,334.3262979874244L644.2691500000001,334.6729524245629L645.01605,334.3660183172959L647.79995,334.54054901416487L652.5869,334.5116613754859L654.8276000000001,334.3262979874244L655.06525,334.27454010156487L655.3707999999999,334.73313465852004L655.94795,334.52490240977363L656.55905,334.4875890365014L658.5621,334.5959173349234L660.2596,334.21315438930804L661.8552500000001,334.34314945661106L663.9941,334.29259504905116L666.54035,334.632027229896L666.7440499999999,334.43222071574286L667.7625499999999,334.29018809245184L668.0681000000001,334.65850791197556L668.4076,334.4153692465562L671.531,334.4153692465562L671.83655,334.6115653258104L671.9723499999999,334.5549935267522L672.5495,334.7343381368197L674.7223,334.5345316226666L675.36735,334.6825816374559L679.9506,334.58869646512545L682.0894499999999,334.5261058880733L683.65115,334.6645266899696L685.14495,334.6332307081956L688.06465,334.59952915631806L690.0337499999999,334.3648148389963L695.0923,334.7704480317923L695.1602,334.75118960600633L696.2466,334.60915836921106L697.29905,334.6813781591562L699.3021,334.7198950107281L704.15695,334.7692445534926L704.97175,334.72711726702175L705.2773,334.58869646512545L707.14455,334.884796494704L712.2710000000001,334.8703519821167L712.7463,334.7608188188993L716.2092,334.8270198308505L716.92215,334.8210024393522L721.4375,334.7066539764404L723.8819,334.8089648833642L724.6288000000001,334.3937024776752L725.2059499999999,334.91368413338296L726.76765,334.97386636734007L727.92195,334.7692445534926L730.1287,334.91007231198824L732.8447,334.54054901416487L735.4249,334.75720838400036L736.6470999999999,334.8498900780311L740.4155499999999,334.9509975066552L740.4495,334.89322222929735L741.6038,334.8968326641963L742.0791,334.70906231953546L743.505,335.01719851860634L749.17465,335.08460300885713L750.2271000000001,334.98349558023307L751.3814,334.8583158126244L755.048,335.07617727426384L756.1683499999999,335.04969797867994L756.77945,334.77165151009194L756.84735,335.3229277610779L757.66215,334.9798851453341L757.6961,335.1158989906311L757.79795,335.11710246893074L758.443,334.92812725947454L759.63125,335.02321729660036L760.6837,334.9052583987896L762.00775,335.00275539251476L762.34725,334.9257203028752L765.3688,334.993124793126L765.8441,335.0749737959642L766.82865,334.8595192909241L767.10025,334.90405492048995L768.0848,335.0111797406123L771.44585,334.99192131482636L779.2883,335.2603371840257L780.2389000000001,335.10145447804376L780.54445,334.98831087992744L781.49505,334.88961040790264L782.6832999999999,334.8595192909241L783.0907000000001,335.1664520116953L785.2635,335.0328465094933L789.8467499999999,335.23987527994007L791.6800499999999,335.0797890956585L796.1954,335.0797890956585L796.2293500000001,335.24709753623375L800.98235,335.05210493527926L805.0903,335.154415842203L805.32795,335.2350613667415L809.5717000000001,335.1748777462886L813.40805,335.0749737959642L814.0531,335.1917292154752L815.0037,335.17969304598296L815.7506000000001,335.2314495453468L816.4635499999999,335.16163809849667L818.7721499999999,335.13275045981777L820.5715,335.3518153997568L822.5406,335.09062178685116L824.0344,335.14960054250867L831.2997,334.90044309909524L831.9108,335.3265395824726L832.6577,335.09904752144445L832.8614,335.2519128359281L836.56195,335.41079554191003L837.03725,335.09543708654553L837.4107,335.23385788844183L839.2779499999999,335.2386718016404L839.6514,335.1688603547903L839.8551,335.37227869033813L841.85815,335.3229277610779L842.7748,335.2350613667415L843.55565,335.15561932050264L845.93215,335.30005890039297L846.6790500000001,335.3554272211515L847.7994,335.46616386266857L848.6142000000001,335.17006383308996L849.9722,335.26755944031936L850.5832999999999,335.3409827085642L850.787,335.41320249850935L850.88885,335.2434871013348L853.4690499999999,335.24709753623375L853.5029999999999,335.4372762239896L855.09865,335.6322688249441L856.1511,335.3614446126498L857.06775,335.3229277610779L857.1696000000001,335.4553311714759L857.33935,335.49505150134746L859.7497999999999,335.4866257667542L860.12325,335.2483010145334L861.7868,335.2555232708271L863.72195,335.4228317114023L865.2497000000001,335.21098764126117L866.64165,335.51551340543307L867.0830000000001,335.22182033245383L867.1169500000001,335.38551833813005L867.86385,335.3457980082585L868.40705,335.39996285071743L872.1754999999999,335.5793074607849L872.88845,335.27839213151196L875.231,335.2868178661053L875.33285,335.29404012239894L875.3668,335.27237474001373L876.9964,335.49264454474815L877.8112,335.4288504893963L882.2926,335.35061192145713L885.0086,335.0039588708144L885.44995,335.22904258874746L887.6227500000001,335.4962549796471L889.8295,335.5949554516719L890.6103499999999,335.4168129334083L893.46215,335.3337604522705L893.564,335.63828760293814L893.73375,335.47097777586714L896.0084,335.4324609242953L896.6195,335.44209013718825L899.16575,335.45412769317625L900.4898,335.30607629189126L905.8539,335.3229277610779L907.2798,335.3807044249314L907.31375,335.51310644883375L909.5205,335.53116139632004L909.7242,335.6455084727361L910.6069,335.43366440259496L911.3198500000001,335.56606781299297L911.52355,335.2820039529067L916.88765,335.5082911491394L925.0017,335.5359753095187L925.44305,335.6756009762104L926.5973499999999,335.6093985777635L927.41215,335.52273566172676L927.8874500000001,335.5564386001L928.8380500000001,335.4962549796471L932.70835,335.41079554191003L933.8966,335.684025324308L935.15275,335.2916331657997L938.2422,335.40116632901703L942.6557,335.78874457432676L945.20195,335.35422374285184L948.2574500000001,335.6358792598431L948.3593000000001,335.8055960435134L953.34995,335.79476335232073L953.48575,335.8862401815561L954.9456,335.65393420732937L955.31905,335.49264454474815L955.65855,335.34700148655816L956.81285,335.46375690606925L957.15235,335.7514312010545L958.03505,335.5769005041856L959.5628,335.6178243123568L960.3436499999999,335.52032870512744L962.0751,335.63708273814274L962.8899,335.6033811862652L963.53495,335.6274535252498L965.1306,335.4794035104605L968.96695,335.67921141110935L970.6305,335.6575460287241L973.38045,335.6142138774578L973.7538999999999,335.6852301891033L974.4329,335.78513275293204L976.91125,335.7008767934946L978.8463999999999,335.5576420783997L982.47905,335.57208520449126L987.2660000000001,335.60217770796555L988.59005,335.7803188397334L989.5746,335.66115646362306L992.5282500000001,335.7670791919415L994.1578499999999,335.84411289508523L994.22575,335.6984698368953L995.51585,335.79235500922573L996.2967,335.9392015457153L998.7071500000001,335.8874450463515L1003.4941,335.78633761772744L1005.6669,335.6635634202224L1008.994,335.77911536143375L1009.2656,335.8019842221187L1014.426,335.88864852465116L1015.1729,335.4782000321608L1016.2932500000001,335.7803188397334L1018.8055499999999,335.79476335232073L1020.1296000000001,335.826057947599L1023.0492999999999,335.77068962684046L1025.52765,335.76106041394746L1026.3764,335.76467084884644L1026.81775,335.91753616333006L1027.1233,335.7213400840759L1029.80535,335.65152725073006L1031.8084,335.7141178277823L1035.6787,335.8092064784123L1036.18795,335.93438763251675L1038.8700000000001,335.84411289508523L1041.8236499999998,335.64671195103574L1044.8452,335.77550354003904L1046.10135,335.80679952181305L1047.2896,335.9440168454097L1049.8019,335.7598569356478L1054.0117,335.87661096866316L1054.72465,335.8188356913053L1055.0302000000001,335.8657782774705L1055.5734,335.88503670325645L1057.71225,335.7622638922471L1057.7462,335.6683787199167L1058.2214999999999,336.09808425169723L1062.39735,335.8477233299842L1062.7708,336.02706932654746L1066.1658,335.8862401815561L1068.4404499999998,335.7442089447608L1075.23045,335.94762728030867L1079.5421000000001,335.89948121584376L1079.5760500000001,335.7634673705468L1080.5606,335.67680445451003L1080.6285,335.7333762535682L1083.98955,336.13660248976487L1089.08205,335.8224475127L1091.2548499999998,336.08123416900634L1091.45855,335.94762728030867L1091.66225,335.8970742592445L1091.79805,335.9777183972872L1091.832,336.0114213356605L1095.7362500000002,335.7670791919415L1097.6035000000002,336.1004925947923L1101.6775,335.8140217781067L1103.5786999999998,336.0246609834524L1106.9058,336.08002930421094L1107.2453,336.03308671804575L1107.4829499999998,336.0619757432204L1108.0940500000002,335.98614413188056L1110.0292000000002,335.8814262683575L1111.523,336.0992891164926L1114.4427,336.10771346459023L1117.53215,335.89466591614945L1117.60005,336.23650505359353L1118.6864500000001,335.88262974665713L1119.29755,336.066789656419L1128.9054,336.1053065079909L1129.7881,336.00540255766646L1131.2819,336.0078109007615L1133.14915,336.11975102057824L1135.25405,335.93438763251675L1135.6954,335.6671752416171L1138.8188,335.8453163733849L1139.80335,335.9668857060946L1141.1274,335.9006846941434L1150.6334,335.92716537622306L1153.31545,336.1101218076853L1154.19815,336.1281767551716L1154.9450499999998,335.89225895955013L1155.5901000000001,335.89466591614945L1156.43885,336.2052104583153L1156.9820499999998,336.15345257245576L1157.3894500000001,335.78874457432676L1158.8492999999999,336.0005886444679L1161.1579,336.09808425169723L1163.2628,336.11252876428455L1170.3244,336.28104068315946L1170.56205,336.1113252859849L1170.8676,336.1763228196364L1172.5651,336.21122923630935L1172.66695,336.01021785736083L1173.3799,336.02225402685315L1174.43235,336.1137322425842L1175.0774,336.0595674001254L1179.6946,336.15104561585645L1182.44455,336.1414164029635L1182.4785,336.2509495661809L1183.6327999999999,335.9692926626939L1188.28395,336.0884550388043L1188.4537,335.98133021868193L1189.3364,336.13660248976487L1190.8981,336.1703040416424L1191.40735,335.9548495366023L1194.19125,336.13299066837016L1195.6511,336.1101218076853L1196.5338000000002,336.2016000234164L1197.9257499999999,336.23169114039496L1199.3856,336.2954851957468L1203.867,336.22446888410127L1204.10465,336.1678970850431L1204.24045,336.1028995513916L1207.70335,336.21122923630935L1209.06135,336.3051144086398L1212.25265,336.1173440639789L1212.7279500000002,336.1955812454224L1213.33905,336.2894664177528L1214.76495,336.14021292466384L1223.99935,336.2846525045542L1225.7987,336.29187337435206L1229.8387500000001,336.2641892139728L1236.01765,336.24733913128193L1237.2738000000002,336.19317428882306L1240.4651,336.1654901284438L1245.8631500000001,336.3183540564317L1246.74585,336.50131048789393L1248.10385,336.24974608788125L1249.6655500000002,336.0246609834524L1251.8723,336.16067482874945L1252.10995,336.17872977623574L1252.38155,336.08604808220497L1254.01115,336.2726149485661L1254.3167,336.34122430361236L1256.31975,336.3713154205909L1256.7611,336.33761248221765L1261.68385,336.4399247756371L1262.0912500000002,336.24733913128193L1263.2115999999999,336.1269732768719L1264.6375,336.49408823160024L1266.84425,336.12938023347124L1269.35655,336.15104561585645L1270.9522,336.1763228196364L1273.15895,336.29909563064575L1274.1435,336.2822441614591L1274.58485,336.51816195708057L1276.9274,336.2653940787682L1277.02925,336.26298573567317L1278.4891,336.202803501716L1280.15265,336.0776223476116L1282.05385,336.18595203252937L1286.5352500000001,336.3231693561261L1286.8068500000002,336.40261140236487L1287.0445,336.27863372656014L1290.20185,336.14863865925713L1290.6092500000002,336.2208584492023L1291.28825,336.3123366649334L1295.15855,336.2954851957468L1295.2943500000001,336.3219658778264L1296.211,336.2942817174471L1296.2789,336.06919661301833L1299.3344,336.2569683441749L1301.7109,336.22928418379564L1302.62755,336.57593723443836L1302.8652,336.31113318663375L1302.9670500000002,336.466404071221L1303.8158,336.24252383158756L1308.433,336.46279363632203L1311.5564000000002,336.212432714609L1311.79405,336.43029556274416L1314.84955,336.40140653756947L1315.1551,336.2653940787682L1315.5625,336.212432714609L1316.20755,336.17872977623574L1316.7847,336.40140653756947L1318.618,336.31354014323307L1319.0254,336.348446559906L1319.87415,336.31715057813204L1321.1302999999998,336.2413203532879L1323.0993999999998,336.2232654058016L1324.6611,336.0776223476116L1325.30615,336.57593723443836L1325.5438000000001,336.4423317322364L1327.1055,336.15104561585645L1328.8709,336.15465743725116L1328.97275,336.41464757185713L1330.161,336.32677979102505L1334.5745,336.2834490262545L1336.3399,336.1113252859849L1336.37385,336.37733419858495L1337.0868,336.5458461174598L1338.95405,336.4098322721628L1341.9077,336.34724308160634L1341.9416500000002,336.31955753473136L1343.23175,336.3929808029762L1344.42,336.42668374134945L1344.72555,336.2340980969943L1346.0496,336.4122406152579L1347.7131499999998,336.4074253155635L1349.5804,336.3628896859976L1350.6668,336.5602906300471L1353.89205,336.29668867404644L1359.0524500000001,336.27863372656014L1360.7160000000001,336.42668374134945L1361.9382,336.51214317908654L1364.0430999999999,336.20761741491464L1366.6572500000002,336.3183540564317L1366.7591,336.41705452845645L1369.3393,336.212432714609L1370.05225,336.2822441614591L1370.32385,336.54223568256083L1370.7652,336.68065648445713L1370.8331,336.3051144086398L1371.0368,336.2148396712083L1374.3638999999998,336.2533565227802L1374.4317999999998,336.5964005250197L1377.38545,336.3015039737408L1377.4873,336.5277911699735L1378.40395,336.3400208253127L1384.2094,336.46520059292135L1384.44705,336.50612578758825L1386.6877499999998,336.39899958097016L1386.8574999999998,336.42668374134945L1390.3883,336.42668374134945L1390.96545,336.4074253155635L1393.2401,336.5663080215454L1393.9191,336.3628896859976L1397.55175,336.4543679017287L1399.3171499999999,336.5578822869521L1399.8264000000001,336.40862879386316L1400.33565,336.32076239952676L1400.87885,336.3123366649334L1401.3201999999999,336.44714564543506L1402.50845,336.3797411551842L1403.1535,336.4483491237347L1403.39115,336.38094463348386L1411.3015,336.2389133966886L1413.3384999999998,336.34122430361236L1414.357,336.5458461174598L1415.00205,336.35927925109866L1418.0236,336.2690045136672L1419.34765,336.5350134262672L1419.48345,336.6529723240779L1419.789,336.2328946186946L1419.9927,336.55908715174746L1420.8414500000001,336.56510454324575L1422.7766,336.1474351809575L1427.7332999999999,336.4206649633554L1431.6715,336.18956246742835L1432.79185,336.6914891756498L1436.4924,336.456774858328L1436.6961000000001,336.4038148806645L1437.0016500000002,336.624084685399L1441.3812,336.32437283442573L1442.5355000000002,336.3725188988906L1451.2267000000002,336.5326064696679L1451.87175,336.6204728640043L1453.3316,336.63612085489126L1455.67415,336.3652966425969L1462.9733999999999,336.2846525045542L1466.40235,336.58677131212676L1468.2696,336.5663080215454L1468.77885,336.6553792806772L1471.1214,336.5374203828665L1472.2757,336.4254802630498L1474.788,336.6421396328853L1475.3311999999999,336.2268758407006L1475.7046500000001,336.6662119718698L1476.85895,336.55908715174746L1479.5749500000002,336.55667880865246L1481.6459000000002,336.4989035312946L1481.67985,336.478441627209L1483.64895,336.61204712941094L1484.32795,336.32437283442573L1485.7878,336.4459421671354L1485.95755,336.3833515900832L1488.40195,336.4808485838083L1493.1888999999999,336.51334804388193L1493.9697500000002,336.57954905583307L1494.0037000000002,336.6192693857046L1498.6209000000001,336.68306344105645L1501.8800999999999,336.45918320142306L1503.88315,336.5530683737535L1504.2566000000002,336.62889859859763L1513.8984,336.55427185205315L1515.29035,336.61204712941094L1517.66685,336.65056398098284L1518.6174500000002,336.6963030888484L1520.3489,336.38816688977755L1523.64205,336.5001070095943L1524.6945,336.3400208253127L1524.86425,336.5783455775334L1525.4414,336.26298573567317L1527.1728500000002,336.53621690456686L1528.4629499999999,336.5747337561387L1535.38875,336.54103220426117L1537.83315,336.4579797231234L1541.3979000000002,336.6313055551969L1544.35155,336.87203726401697L1544.75895,336.4603866797227L1545.84535,336.5434391608605L1546.79595,336.6553792806772L1549.7496,336.5891782687261L1550.0891,336.65658275897687L1550.2928,336.62167634230394L1550.4286,336.1955812454224L1551.48105,336.50131048789393L1551.54895,336.7793555699862L1552.02425,336.598807481619L1552.22795,336.6349173765916L1554.7063,336.59278870362505L1563.09195,336.5735302778391L1566.0795500000002,336.8503718816317L1566.96225,336.76009714420024L1570.0177500000002,336.49168127500093L1570.9344,336.62167634230394L1573.3109,336.59038174702573L1575.6195,336.5915852253254L1576.1627,336.4964965746953L1578.4034000000001,336.51334804388193L1580.033,336.8034292954665L1580.5762,336.7757451350872L1581.5607499999999,336.40622183726384L1582.4095,336.6108436511113L1583.05455,336.8443531036377L1587.94335,336.8323169341454L1588.2149499999998,336.71917333602903L1590.38775,336.55908715174746L1591.3044,336.5097362224872L1595.88765,336.614455472506L1596.1253,336.8154654649588L1596.7364,336.60362139481765L1600.23325,336.6890822190505L1601.04805,336.59038174702573L1601.38755,336.6818599627568L1601.86285,336.84194614703836L1603.96775,336.748060974708L1607.193,336.61806590740497L1609.4337,336.80824459516083L1609.87505,336.86963030741765L1610.96145,336.6938961322491L1611.57255,336.8323169341454L1611.91205,336.61204712941094L1612.625,336.6192693857046L1616.32555,336.5807525341327L1618.7020499999999,336.79500356087317L1622.02915,336.75407975270195L1626.0013000000001,336.6264916419983L1627.2913999999998,336.738431761815L1628.41175,336.7913931259742L1628.9888999999998,336.9466653970572L1630.31295,336.6529723240779L1638.52885,336.8275030209468L1639.07205,336.60362139481765L1643.9608500000002,336.54704959575946L1645.72625,336.6938961322491L1647.22005,336.6313055551969L1648.4083,336.472422849215L1649.4268,336.69028569735013L1650.2416,336.71917333602903L1651.0564,336.67945300615753L1651.328,336.608436694512L1651.70145,336.7865778262799L1651.7354,336.6349173765916L1653.7723999999998,336.59038174702573L1654.68905,336.67463770646316L1654.82485,336.69509961054877L1655.3341,336.75648670930127L1656.2168000000001,336.69028569735013L1656.59025,336.88046299861026L1656.9637,336.81666894325843L1658.08405,336.624084685399L1660.9698,336.58556644733136L1662.76915,336.5747337561387L1662.90495,336.72398724922766L1663.3463,336.6096401728116L1666.0622999999998,336.74926445300764L1666.1980999999998,336.7119510797354L1667.11475,336.74565401810867L1667.4203,336.66139805867124L1670.37395,336.56510454324575L1670.6116000000002,336.7167663794297L1672.1054,336.79500356087317L1673.90475,336.68547039765576L1675.093,336.60121443821834L1675.2288,336.7083406448364L1677.2997500000001,336.6529723240779L1680.5928999999999,336.7757451350872L1681.883,336.58556644733136L1683.4447,336.69269265394945L1683.47865,336.82870649924644L1683.5805,336.67223074986384L1685.4817,336.7649124438946L1688.3335,336.6577862372765L1689.1483,336.7155615146344L1690.8118499999998,336.7528762744023L1691.28715,336.80222581716686L1696.31175,336.77093122188865L1697.3302500000002,336.81666894325843L1699.3333,336.6650084935702L1701.06475,336.89009221150326L1708.05845,336.7528762744023L1708.364,336.72880254892203L1709.043,336.81666894325843L1710.09545,336.577140712738L1710.16335,336.8214842429528L1714.7466,336.5783455775334L1715.9688,336.82028076465315L1717.4625999999998,336.76972635709325L1719.4656499999999,336.6938961322491L1719.8730500000001,336.7757451350872L1723.7094,336.92259167157687L1724.96555,336.5783455775334L1726.018,336.8792595203106L1727.20625,336.62889859859763L1732.2987500000002,336.8997214243962L1732.6043,336.6975079536438L1733.5209499999999,337.06823472976686L1734.53945,336.6385278114906L1735.69375,337.0321248347943L1737.2215,336.7552832310016L1737.4931,336.6987114319435L1738.4437,336.7372282835153L1742.2800499999998,336.7203768143287L1742.8232500000001,336.8888887332036L1743.6041,336.79018964767454L1744.92815,336.598807481619L1745.5053,336.8250946778518L1748.425,336.66139805867124L1748.73055,336.83352041244507L1749.88485,336.8792595203106L1753.7891,336.8238911995521L1755.1131500000001,336.83833571213944L1756.8785500000001,336.7829673913809L1766.65615,336.8262995426471L1767.3691000000001,336.80703973036543L1772.15605,337.04416100428654L1773.6159,336.9466653970572L1775.41525,336.88166786340565L1775.6529,336.8575941379254L1776.3319,337.1416579980117L1777.2145999999998,336.7986153822679L1780.2701,336.72519211402306L1782.0355,336.57232679953944L1784.0725,336.7661159221943L1784.31015,336.8395391904391L1785.2947,336.9069436806899L1787.09405,336.7661159221943L1787.22985,336.7793555699862L1787.6712,336.82028076465315L1788.1465,336.7974105174725L1788.9613,336.9009262891916L1789.3687,336.8154654649588L1790.4551,336.9418500973628L1790.69275,336.9177763718825L1791.16805,336.84074266873876L1795.0044,336.74204219671395L1795.3778499999999,336.74926445300764L1795.5815499999999,336.9033332457909L1796.9735,336.9623120014484L1797.1092999999998,336.7504679313073L1797.5846,336.5326064696679L1798.36545,336.87805604201094L1801.96415,336.82870649924644L1803.424,336.7372282835153L1804.9178,336.5458461174598L1805.5289,336.97916347063506L1806.0721,336.82028076465315L1807.0906,336.9911996401273L1809.43315,336.60362139481765L1813.6769,336.8864817766043L1815.1367500000001,336.7685228787936L1815.20465,336.8503718816317L1816.4608,336.7528762744023L1816.49475,336.9671273011428L1816.83425,336.83111345584575L1817.10585,336.8046327737662L1817.9546,336.89009221150326L1820.7724500000002,336.80824459516083L1820.9422,336.6349173765916L1821.45145,336.88166786340565L1828.03775,336.81065155176015L1832.72285,336.85639065962573L1839.92025,336.90935202378495L1842.56835,336.86722335081834L1844.40165,336.6866738759554L1845.2504000000001,336.89490751119763L1849.5281,336.8371322338398L1852.27805,336.87203726401697L1853.9416,336.8250946778518L1854.349,337.07666046436015L1854.99405,336.5915852253254L1856.9970999999998,337.0188838005066L1860.9352999999999,337.05619717377886L1863.61735,336.99481146152203L1865.04325,336.7360248052157L1867.21605,337.02851301339956" style="fill: none;" fill="none"></path></g></g></g></g></g></g><g transform="translate(34, 378)" clip-path="url(#clip_1)"><clipPath id="clip_1"><rect width="2037" height="22"></rect></clipPath><g><g><line x1="0" y1="0" x2="0" y2="5" style="visibility: inherit;" fill="rgb(0, 0, 0)" stroke="rgb(204, 204, 204)" stroke-width="1px"></line><line x1="169.75" y1="0" x2="169.75" y2="5" style="visibility: inherit;" fill="rgb(0, 0, 0)" stroke="rgb(204, 204, 204)" stroke-width="1px"></line><line x1="339.5" y1="0" x2="339.5" y2="5" style="visibility: inherit;" fill="rgb(0, 0, 0)" stroke="rgb(204, 204, 204)" stroke-width="1px"></line><line x1="509.25" y1="0" x2="509.25" y2="5" style="visibility: inherit;" fill="rgb(0, 0, 0)" stroke="rgb(204, 204, 204)" stroke-width="1px"></line><line x1="679" y1="0" x2="679" y2="5" style="visibility: inherit;" fill="rgb(0, 0, 0)" stroke="rgb(204, 204, 204)" stroke-width="1px"></line><line x1="848.75" y1="0" x2="848.75" y2="5" style="visibility: inherit;" fill="rgb(0, 0, 0)" stroke="rgb(204, 204, 204)" stroke-width="1px"></line><line x1="1018.5" y1="0" x2="1018.5" y2="5" style="visibility: inherit;" fill="rgb(0, 0, 0)" stroke="rgb(204, 204, 204)" stroke-width="1px"></line><line x1="1188.25" y1="0" x2="1188.25" y2="5" style="visibility: inherit;" fill="rgb(0, 0, 0)" stroke="rgb(204, 204, 204)" stroke-width="1px"></line><line x1="1358" y1="0" x2="1358" y2="5" style="visibility: inherit;" fill="rgb(0, 0, 0)" stroke="rgb(204, 204, 204)" stroke-width="1px"></line><line x1="1527.75" y1="0" x2="1527.75" y2="5" style="visibility: inherit;" fill="rgb(0, 0, 0)" stroke="rgb(204, 204, 204)" stroke-width="1px"></line><line x1="1697.5" y1="0" x2="1697.5" y2="5" style="visibility: inherit;" fill="rgb(0, 0, 0)" stroke="rgb(204, 204, 204)" stroke-width="1px"></line><line x1="1867.25" y1="0" x2="1867.25" y2="5" style="visibility: inherit;" fill="rgb(0, 0, 0)" stroke="rgb(204, 204, 204)" stroke-width="1px"></line><line x1="2037" y1="0" x2="2037" y2="5" style="visibility: inherit;" fill="rgb(0, 0, 0)" stroke="rgb(204, 204, 204)" stroke-width="1px"></line></g><g transform="translate(0, 8)"><text x="0" y="0" dx="0em" dy="0.95em" style="text-anchor: middle; visibility: hidden; font-family: &quot;Helvetica Neue&quot;, sans-serif; font-size: 12px; font-weight: 200;" fill="rgb(50, 49, 63)" stroke="none" stroke-width="1px">-5k</text><text x="169.75" y="0" dx="0em" dy="0.95em" style="text-anchor: middle; visibility: inherit; font-family: &quot;Helvetica Neue&quot;, sans-serif; font-size: 12px; font-weight: 200;" fill="rgb(50, 49, 63)" stroke="none" stroke-width="1px">0</text><text x="339.5" y="0" dx="0em" dy="0.95em" style="text-anchor: middle; visibility: inherit; font-family: &quot;Helvetica Neue&quot;, sans-serif; font-size: 12px; font-weight: 200;" fill="rgb(50, 49, 63)" stroke="none" stroke-width="1px">5k</text><text x="509.25" y="0" dx="0em" dy="0.95em" style="text-anchor: middle; visibility: inherit; font-family: &quot;Helvetica Neue&quot;, sans-serif; font-size: 12px; font-weight: 200;" fill="rgb(50, 49, 63)" stroke="none" stroke-width="1px">10k</text><text x="679" y="0" dx="0em" dy="0.95em" style="text-anchor: middle; visibility: inherit; font-family: &quot;Helvetica Neue&quot;, sans-serif; font-size: 12px; font-weight: 200;" fill="rgb(50, 49, 63)" stroke="none" stroke-width="1px">15k</text><text x="848.75" y="0" dx="0em" dy="0.95em" style="text-anchor: middle; visibility: inherit; font-family: &quot;Helvetica Neue&quot;, sans-serif; font-size: 12px; font-weight: 200;" fill="rgb(50, 49, 63)" stroke="none" stroke-width="1px">20k</text><text x="1018.5" y="0" dx="0em" dy="0.95em" style="text-anchor: middle; visibility: inherit; font-family: &quot;Helvetica Neue&quot;, sans-serif; font-size: 12px; font-weight: 200;" fill="rgb(50, 49, 63)" stroke="none" stroke-width="1px">25k</text><text x="1188.25" y="0" dx="0em" dy="0.95em" style="text-anchor: middle; visibility: inherit; font-family: &quot;Helvetica Neue&quot;, sans-serif; font-size: 12px; font-weight: 200;" fill="rgb(50, 49, 63)" stroke="none" stroke-width="1px">30k</text><text x="1358" y="0" dx="0em" dy="0.95em" style="text-anchor: middle; visibility: inherit; font-family: &quot;Helvetica Neue&quot;, sans-serif; font-size: 12px; font-weight: 200;" fill="rgb(50, 49, 63)" stroke="none" stroke-width="1px">35k</text><text x="1527.75" y="0" dx="0em" dy="0.95em" style="text-anchor: middle; visibility: inherit; font-family: &quot;Helvetica Neue&quot;, sans-serif; font-size: 12px; font-weight: 200;" fill="rgb(50, 49, 63)" stroke="none" stroke-width="1px">40k</text><text x="1697.5" y="0" dx="0em" dy="0.95em" style="text-anchor: middle; visibility: inherit; font-family: &quot;Helvetica Neue&quot;, sans-serif; font-size: 12px; font-weight: 200;" fill="rgb(50, 49, 63)" stroke="none" stroke-width="1px">45k</text><text x="1867.25" y="0" dx="0em" dy="0.95em" style="text-anchor: middle; visibility: inherit; font-family: &quot;Helvetica Neue&quot;, sans-serif; font-size: 12px; font-weight: 200;" fill="rgb(50, 49, 63)" stroke="none" stroke-width="1px">50k</text><text x="2037" y="0" dx="0em" dy="0.95em" style="text-anchor: middle; visibility: hidden; font-family: &quot;Helvetica Neue&quot;, sans-serif; font-size: 12px; font-weight: 200;" fill="rgb(50, 49, 63)" stroke="none" stroke-width="1px">55k</text></g><line x1="0" y1="0" x2="2037" y2="0" fill="rgb(0, 0, 0)" stroke="rgb(204, 204, 204)" stroke-width="1px"></line></g></g></g></g></svg>